# xmcd CD database file
#
# Track frame offsets:
#	150
#	11542
#	26220
#	38180
#	48267
#	63320
#	76125
#	88357
#	100582
#	110430
#	124372
#	134750
#
# Disc length: 1981 seconds
#
# Revision: 0
# Processed by: cddbd v1.4PL0 Copyright (c) Steve Scherf et al.
# Submitted via: CDex 1.50
#
DISCID=a007bb0c
DTITLE=Loretta Lynn - Best of Loretta Lynn #2
DYEAR=1992
DGENRE=Country
TTITLE0=Cheatin' on a cheater
TTITLE1=Walking with my memories
TTITLE2=One's on the way
TTITLE3=What sundown does to you
TTITLE4=For the good times
TTITLE5=Hey Loretta
TTITLE6=Naked in the rain
TTITLE7=Out of my head and back in my bed
TTITLE8=Trouble in paradise
TTITLE9=I lie
TTITLE10=Dear uncle sam
TTITLE11=She's got you
EXTD=YEAR: 1992
EXTT0=
EXTT1=
EXTT2=
EXTT3=
EXTT4=
EXTT5=
EXTT6=
EXTT7=
EXTT8=
EXTT9=
EXTT10=
EXTT11=
PLAYORDER=
